<?xml version="1.0" encoding="iso-8859-1"?>
<!-- Uploaded to: SVG Repo, www.svgrepo.com, Generator: SVG Repo Mixer Tools -->
<svg height="800px" width="800px" version="1.1" id="Layer_1" xmlns="http://www.w3.org/2000/svg" xmlns:xlink="http://www.w3.org/1999/xlink" 
	 viewBox="0 0 512 512" xml:space="preserve">
<path style="fill:#005B9A;" d="M456.949,444.611L318.399,224.616V62.591c0-9.846-7.983-17.829-17.829-17.829h-89.14
	c-9.846,0-17.829,7.983-17.829,17.829v162.024L55.05,444.612c-8.304,13.188-8.784,29.854-1.254,43.495
	c7.531,13.644,21.89,22.12,37.474,22.12h329.459c15.584,0,29.943-8.476,37.473-22.118
	C465.733,474.466,465.254,457.799,456.949,444.611z"/>
<path style="fill:#31AAEF;" d="M256,44.762h-44.57c-9.846,0-17.829,7.983-17.829,17.829v162.024L55.05,444.612
	c-8.304,13.188-8.784,29.854-1.254,43.495c7.531,13.644,21.89,22.12,37.474,22.12H256V44.762z"/>
<path style="fill:#940009;" d="M456.949,444.611l-115.93-184.079H170.98L55.05,444.611c-8.304,13.188-8.784,29.854-1.254,43.495
	c7.531,13.644,21.89,22.12,37.474,22.12h329.459c15.584,0,29.943-8.476,37.473-22.118
	C465.733,474.466,465.254,457.799,456.949,444.611z"/>
<path style="fill:#FF0029;" d="M256,260.533h-85.02L55.05,444.612c-8.304,13.188-8.784,29.854-1.254,43.495
	c7.531,13.644,21.89,22.12,37.474,22.12H256V260.533z"/>
<path style="fill:#002A68;" d="M122.471,397.278c-0.941,0-1.871-0.004-2.806-0.013c-59.762-0.566-100.438-19.494-114.534-53.3l0,0
	c-14.097-33.806,1.082-76.025,42.74-118.88c38.015-39.106,94.633-75.521,159.424-102.537
	c64.79-27.016,130.456-41.613,185.042-41.094c59.762,0.566,100.438,19.494,114.534,53.301c14.097,33.806-1.082,76.025-42.74,118.88
	c-38.015,39.106-94.633,75.521-159.424,102.537C241.028,382.724,176.446,397.277,122.471,397.278z M389.486,117.098
	c-49.344,0-109.041,13.581-168.469,38.361c-60.438,25.201-112.848,58.755-147.577,94.48c-30.634,31.515-43.536,60.784-35.397,80.302
	l0,0c8.14,19.519,38.012,30.952,81.96,31.367c49.858,0.496,110.542-13.148,170.982-38.349
	c60.438-25.201,112.848-58.755,147.577-94.48c30.634-31.515,43.536-60.783,35.397-80.302c-8.14-19.519-38.012-30.952-81.96-31.367
	C391.164,117.102,390.325,117.098,389.486,117.098z"/>
<path style="fill:#5BBBED;" d="M391.415,399.16c-0.436,0-0.865-0.001-1.303-0.002c-54.539-0.247-120.043-15.76-184.45-43.679
	c-64.407-27.919-120.509-65.124-157.971-104.757C6.637,207.287-7.951,164.86,6.618,131.254
	c14.568-33.605,55.532-51.993,115.269-51.692c54.539,0.247,120.043,15.76,184.45,43.679s120.509,65.124,157.971,104.757
	c41.054,43.434,55.642,85.861,41.073,119.466C490.921,380.824,450.468,399.16,391.415,399.16z M120.556,115.217
	c-43.315,0-72.884,10.989-81.221,30.22c-8.412,19.404,4.079,48.85,34.27,80.789c34.225,36.208,86.159,70.492,146.24,96.536
	c60.08,26.045,120.606,40.511,170.429,40.738c43.947,0.178,73.98-10.815,82.39-30.218l0,0c8.412-19.403-4.079-48.849-34.27-80.789
	c-34.225-36.208-86.159-70.492-146.24-96.536c-60.08-26.045-120.606-40.511-170.429-40.738
	C121.337,115.217,120.942,115.217,120.556,115.217z"/>
<path style="fill:#005B9A;" d="M318.445,224.688l-0.046-0.074V62.591c0-9.846-7.983-17.829-17.829-17.829h-89.14
	c-9.846,0-17.829,7.983-17.829,17.829v162.024l-0.046,0.074h124.891V224.688z"/>
<path style="fill:#A6D9F3;" d="M256,224.688V44.762h-44.57c-9.846,0-17.829,7.983-17.829,17.829v162.024l-0.046,0.074H256V224.688z"
	/>
<path style="fill:#002A68;" d="M312.058,1.774H199.941c-21.682,0-39.324,17.64-39.324,39.323s17.641,39.323,39.324,39.323h112.116
	c21.682,0,39.324-17.64,39.324-39.323S333.74,1.774,312.058,1.774z"/>
<path style="fill:#003B8E;" d="M256,1.774h-56.058c-21.682,0-39.324,17.64-39.324,39.323s17.641,39.323,39.324,39.323H256V1.774z"/>
</svg>