<?xml version="1.0" encoding="iso-8859-1"?>
<!-- Uploaded to: SVG Repo, www.svgrepo.com, Generator: SVG Repo Mixer Tools -->
<svg height="800px" width="800px" version="1.1" id="Layer_1" xmlns="http://www.w3.org/2000/svg" xmlns:xlink="http://www.w3.org/1999/xlink" 
	 viewBox="0 0 512 512" xml:space="preserve">
<g>
	<g>
		<path style="fill:#3D4763;" d="M35.31,445.793c-4.873,0-8.828-3.955-8.828-8.828V207.448c0-4.873,3.955-8.828,8.828-8.828
			s8.828,3.955,8.828,8.828v229.517C44.138,441.838,40.183,445.793,35.31,445.793"/>
		<path style="fill:#3D4763;" d="M476.69,445.793c-4.873,0-8.828-3.955-8.828-8.828V207.448c0-4.873,3.955-8.828,8.828-8.828
			c4.873,0,8.828,3.955,8.828,8.828v229.517C485.517,441.838,481.562,445.793,476.69,445.793"/>
	</g>
	<g>
		<path style="fill:#5AB4E5;" d="M220.69,207.448v150.069c0,19.5,15.81,35.31,35.31,35.31s35.31-15.81,35.31-35.31V207.448H220.69z"
			/>
		<polygon style="fill:#5AB4E5;" points="220.69,172.138 291.31,172.138 291.31,119.172 220.69,119.172 		"/>
		<polygon style="fill:#5AB4E5;" points="370.759,172.138 441.379,172.138 441.379,119.172 370.759,119.172 		"/>
		<path style="fill:#5AB4E5;" d="M370.759,207.448v150.069c0,19.5,15.81,35.31,35.31,35.31c19.5,0,35.31-15.81,35.31-35.31V207.448
			H370.759z"/>
		<polygon style="fill:#5AB4E5;" points="70.621,172.138 141.241,172.138 141.241,119.172 70.621,119.172 		"/>
		<path style="fill:#5AB4E5;" d="M70.621,207.448v150.069c0,19.5,15.81,35.31,35.31,35.31s35.31-15.81,35.31-35.31V207.448H70.621z"
			/>
	</g>
	<g>
		<polygon style="fill:#556080;" points="0,207.448 512,207.448 512,172.138 0,172.138 		"/>
		<polygon style="fill:#556080;" points="0,472.276 512,472.276 512,436.966 0,436.966 		"/>
		<polygon style="fill:#556080;" points="52.966,119.172 158.897,119.172 158.897,83.862 52.966,83.862 		"/>
		<polygon style="fill:#556080;" points="203.034,119.172 308.966,119.172 308.966,83.862 203.034,83.862 		"/>
		<polygon style="fill:#556080;" points="353.103,119.172 459.034,119.172 459.034,83.862 353.103,83.862 		"/>
	</g>
	<g>
		<polygon style="fill:#D69C77;" points="141.241,83.862 70.621,83.862 52.966,39.724 158.897,39.724 		"/>
		<polygon style="fill:#D69C77;" points="291.31,83.862 220.69,83.862 203.034,39.724 308.966,39.724 		"/>
		<polygon style="fill:#D69C77;" points="441.379,83.862 370.759,83.862 353.103,39.724 459.034,39.724 		"/>
	</g>
	<g>
		<path style="fill:#0E9AA7;" d="M105.931,392.828L105.931,392.828c-19.5,0-35.31-15.81-35.31-35.31v-97.103h70.621v97.103
			C141.241,377.017,125.431,392.828,105.931,392.828"/>
		<path style="fill:#0E9AA7;" d="M256,392.828L256,392.828c-19.5,0-35.31-15.81-35.31-35.31v-97.103h70.621v97.103
			C291.31,377.017,275.5,392.828,256,392.828"/>
		<path style="fill:#0E9AA7;" d="M406.069,392.828L406.069,392.828c-19.5,0-35.31-15.81-35.31-35.31v-97.103h70.621v97.103
			C441.379,377.017,425.569,392.828,406.069,392.828"/>
	</g>
</g>
</svg>