<?xml version="1.0" encoding="iso-8859-1"?>
<!-- Uploaded to: SVG Repo, www.svgrepo.com, Generator: SVG Repo Mixer Tools -->
<svg version="1.1" id="Layer_1" xmlns="http://www.w3.org/2000/svg" xmlns:xlink="http://www.w3.org/1999/xlink" 
	 viewBox="0 0 293.478 293.478" xml:space="preserve">
<g>
	<g>
		<g id="XMLID_20_">
			<g>
				<g>
					<path style="fill:#2D213F;" d="M293.478,38.227v42.67c0,4.562-3.611,8.268-8.078,8.268h-4.752v140.333
						c0,26.293-20.844,47.675-46.503,47.675c-8.585,0-16.599-2.439-23.505-6.621H20.446c-7.983,0-15.079-4.593-18.468-11.974
						c-3.421-7.381-2.344-15.902,2.756-22.175l67.347-82.901c0.634-0.792,0.982-1.774,0.982-2.756V37.15
						c0-11.499,9.187-20.844,20.432-20.844h47.644c11.277,0,20.432,9.345,20.432,20.844v109.542c0,1.014,0.348,1.996,0.982,2.756
						l25.057,30.854V89.165h-6.336c-4.467,0-8.078-3.706-8.078-8.268v-42.67c0-4.562,3.611-8.268,8.078-8.268h104.125
						C289.867,29.959,293.478,33.665,293.478,38.227z M277.354,72.629V46.463h-88.033v26.166H277.354z M264.525,229.498v-14.984
						c-16.568-1.457-26.166-7.761-34.751-13.4c-7.571-4.973-14.35-9.377-26.039-10.644v9.693l29.461,36.24
						c5.1,6.272,6.177,14.794,2.756,22.175c-0.317,0.697-0.729,1.362-1.109,2.027C251.283,260.226,264.525,246.446,264.525,229.498z
						 M264.525,197.884V89.165h-60.79v84.644c16.599,1.457,26.198,7.761,34.751,13.4
						C246.088,192.213,252.867,196.585,264.525,197.884z M221.284,251.546c0.348-0.729,0.982-2.693-0.57-4.593l-26.99-33.23
						c-29.619-1.552-47.105-7.001-64.021-12.291c-17.771-5.575-34.719-10.866-65.89-11.848l-46.598,57.369
						c-1.552,1.901-0.919,3.865-0.602,4.593c0.348,0.76,1.426,2.471,3.833,2.471h197.005
						C219.89,254.017,220.967,252.306,221.284,251.546z M179.279,195.951l-29.207-35.955c-3.041-3.738-4.688-8.458-4.688-13.305
						V37.15c0-2.376-1.901-4.308-4.245-4.308H93.495c-2.344,0-4.245,1.932-4.245,4.308v113.597c0,4.847-1.647,9.567-4.688,13.305
						l-7.856,9.662c25.881,1.964,42.068,7.001,57.749,11.911C147.76,189.774,160.621,193.766,179.279,195.951z"/>
				</g>
				<g>
					<rect x="189.321" y="46.463" style="fill:#454D5B;" width="88.033" height="26.166"/>
				</g>
				<g>
					<path style="fill:#AAE1E9;" d="M264.525,214.515v14.984c0,16.948-13.241,30.728-29.682,31.108
						c0.38-0.665,0.792-1.33,1.109-2.027c3.421-7.381,2.344-15.902-2.756-22.175l-29.461-36.24v-9.693
						c11.689,1.267,18.468,5.67,26.039,10.644C238.359,206.754,247.957,213.057,264.525,214.515z"/>
				</g>
				<g>
					<path style="fill:#EAEEEF;" d="M264.525,89.165v108.719c-11.657-1.299-18.437-5.67-26.039-10.675
						c-8.553-5.639-18.151-11.943-34.751-13.4V89.165H264.525z"/>
				</g>
				<g>
					<path style="fill:#F47C6D;" d="M220.714,246.953c1.552,1.901,0.919,3.865,0.57,4.593c-0.317,0.76-1.394,2.471-3.833,2.471
						H20.446c-2.408,0-3.485-1.711-3.833-2.471c-0.317-0.729-0.95-2.693,0.602-4.593l46.598-57.369
						c31.171,0.982,48.119,6.272,65.89,11.848c16.916,5.29,34.402,10.739,64.021,12.291L220.714,246.953z"/>
				</g>
				<g>
					<path style="fill:#EAEEEF;" d="M150.072,159.997l29.207,35.955c-18.658-2.186-31.52-6.177-44.824-10.327
						c-15.681-4.91-31.868-9.947-57.749-11.911l7.856-9.662c3.041-3.738,4.688-8.458,4.688-13.305V37.15
						c0-2.376,1.901-4.308,4.245-4.308h47.644c2.344,0,4.245,1.932,4.245,4.308v109.542
						C145.384,151.539,147.031,156.259,150.072,159.997z"/>
				</g>
			</g>
		</g>
		<g>
			<path style="fill:#C5CBCF;" d="M111.789,137.651V32.841H93.492c-2.344,0-4.245,1.932-4.245,4.308v113.597
				c0,4.847-1.647,9.567-4.688,13.305l-7.856,9.662c10.71,0.814,19.745,2.157,27.785,3.795
				C109.271,164.834,111.789,151.342,111.789,137.651z"/>
		</g>
		<g>
			<path style="fill:#EF685E;" d="M20.446,254.017h197.005c2.439,0,3.516-1.711,3.833-2.471c0.029-0.06,0.06-0.136,0.089-0.212
				l-117.357-22.7c-12.7-2.455-18.766-17.084-11.534-27.81c1.733-2.569,3.329-5.214,4.837-7.9
				c-9.339-1.695-20.103-2.918-33.503-3.339l-46.598,57.369c-1.552,1.901-0.919,3.865-0.602,4.593
				C16.961,252.306,18.038,254.017,20.446,254.017z"/>
		</g>
		<g>
			<path style="fill:#C5CBCF;" d="M203.735,173.808c5.436,0.478,10.064,1.508,14.208,2.832V89.165h-14.208V173.808z"/>
		</g>
		<g>
			<g>
				<path style="fill:#92C1CA;" d="M237.864,248.828c0.133,3.285-0.463,6.618-1.913,9.75c-0.317,0.697-0.729,1.362-1.109,2.027
					c7.878-0.184,15-3.462,20.302-8.673C248.324,252.607,242.6,251.264,237.864,248.828z"/>
			</g>
			<g>
				<path style="fill:#92C1CA;" d="M217.939,194.257c-4.017-1.802-8.525-3.168-14.208-3.782v9.693l14.208,17.477V194.257z"/>
			</g>
		</g>
	</g>
</g>
</svg>