<?xml version="1.0" encoding="iso-8859-1"?>
<!-- Uploaded to: SVG Repo, www.svgrepo.com, Generator: SVG Repo Mixer Tools -->
<svg height="800px" width="800px" version="1.1" id="Layer_1" xmlns="http://www.w3.org/2000/svg" xmlns:xlink="http://www.w3.org/1999/xlink" 
	 viewBox="0 0 511.999 511.999" xml:space="preserve">
<path style="fill:#ACABB1;" d="M504.884,190.273l-22.003-22.003c-0.282-0.312-0.547-0.638-0.847-0.937
	c-0.301-0.303-0.626-0.567-0.939-0.848l-67.792-67.792l-67.758-67.758c-0.291-0.324-0.568-0.657-0.879-0.971
	c-0.304-0.304-0.631-0.57-0.945-0.853L321.726,7.113c-9.482-9.484-24.859-9.484-34.342,0c-9.484,9.482-9.484,24.857,0,34.342
	l5.726,5.726l-51.467,51.465c-0.016,0.016-0.034,0.031-0.049,0.045c-0.015,0.015-0.029,0.034-0.044,0.049l-68.592,68.59
	c-0.016,0.016-0.034,0.031-0.049,0.045c-0.015,0.015-0.029,0.034-0.044,0.049l-68.581,68.581c-0.019,0.019-0.04,0.034-0.058,0.052
	c-0.018,0.019-0.034,0.039-0.052,0.058l-68.607,68.607C12.632,327.657,0.001,358.148,0.001,390.58
	c-0.002,32.433,12.629,62.924,35.56,85.853c22.934,22.935,53.424,35.566,85.858,35.566c32.432-0.002,62.923-12.632,85.856-35.564
	l257.543-257.546l5.725,5.725c4.742,4.742,10.957,7.114,17.17,7.114c6.213,0,12.43-2.372,17.17-7.114
	C514.37,215.13,514.37,199.755,504.884,190.273z"/>
<path style="fill:#00E7F0;" d="M69.904,442.091c13.761,13.762,32.055,21.341,51.514,21.341c19.459-0.002,37.752-7.58,51.512-21.341
	l257.544-257.544l-51.514-51.514L69.904,442.091C69.903,442.091,69.903,442.091,69.904,442.091z"/>
<path style="fill:#898890;" d="M48.569,390.582c0-19.461,7.58-37.755,21.339-51.514l51.49-51.49l28.616,28.616
	c4.742,4.743,10.957,7.114,17.17,7.114s12.43-2.372,17.17-7.112c9.484-9.484,9.484-24.859,0-34.344l-28.616-28.616l34.344-34.344
	l28.616,28.618c4.742,4.742,10.957,7.114,17.17,7.114s12.43-2.372,17.17-7.114c9.484-9.484,9.484-24.859,0-34.342l-28.616-28.618
	l34.342-34.344l28.618,28.618c4.742,4.742,10.957,7.114,17.17,7.114s12.43-2.372,17.17-7.114c9.484-9.484,9.484-24.859,0-34.342
	l-28.614-28.616l34.344-34.342l51.509,51.509l34.342-34.342l-67.758-67.758c-0.291-0.324-0.568-0.657-0.879-0.971
	c-0.304-0.304-0.631-0.57-0.945-0.853L321.726,7.113c-9.482-9.484-24.859-9.484-34.342,0c-9.484,9.482-9.484,24.857,0,34.342
	l5.726,5.726l-51.467,51.465c-0.016,0.016-0.034,0.031-0.049,0.045c-0.015,0.015-0.029,0.034-0.044,0.049l-68.592,68.59
	c-0.016,0.016-0.034,0.031-0.049,0.045c-0.015,0.015-0.029,0.034-0.044,0.049l-68.581,68.581c-0.019,0.019-0.04,0.034-0.058,0.052
	c-0.018,0.019-0.034,0.039-0.052,0.058l-68.607,68.607C12.632,327.657,0.001,358.148,0.001,390.58
	c-0.002,32.433,12.629,62.924,35.56,85.853l34.342-34.344C56.144,428.333,48.569,410.04,48.569,390.582z"/>
<path style="fill:#00D7DF;" d="M293.108,115.865l28.618,28.618c9.484,9.482,9.484,24.857,0,34.342
	c-4.742,4.742-10.957,7.114-17.17,7.114s-12.43-2.372-17.17-7.114l-28.618-28.618l-34.342,34.344l28.616,28.618
	c9.484,9.482,9.484,24.857,0,34.342c-4.742,4.742-10.957,7.114-17.17,7.114c-6.213,0-12.43-2.372-17.17-7.114l-28.616-28.618
	l-34.344,34.344l28.616,28.616c9.484,9.484,9.484,24.859,0,34.344c-4.742,4.74-10.958,7.112-17.17,7.112
	c-6.215,0-12.43-2.37-17.17-7.114l-28.616-28.616l-51.49,51.49c-13.759,13.759-21.339,32.055-21.339,51.514
	c0,19.458,7.575,37.752,21.334,51.509l309.055-309.06l-51.509-51.509L293.108,115.865z"/>
</svg>