<?xml version="1.0" encoding="iso-8859-1"?>
<!-- Uploaded to: SVG Repo, www.svgrepo.com, Generator: SVG Repo Mixer Tools -->
<!DOCTYPE svg PUBLIC "-//W3C//DTD SVG 1.1//EN" "http://www.w3.org/Graphics/SVG/1.1/DTD/svg11.dtd">
<svg height="800px" width="800px" version="1.1" id="Capa_1" xmlns="http://www.w3.org/2000/svg" xmlns:xlink="http://www.w3.org/1999/xlink" 
	 viewBox="0 0 453.234 453.234" xml:space="preserve">
<g>
	<path style="fill:#C1272D;" d="M321.618,0.517c6.42-1.96,12.14,1.85,10.67,8.15c-2.29,9.88-5.92,19.57-10.18,28.79
		c-1.3,2.81-6.81,5.67-9.95,5.24c-9.33-1.29-18.45-4.19-27.64-6.51c-0.68-0.17-1.3-0.69-1.88-1.13c-4.17-3.14-8.88-6.48-7.35-12.4
		c1.62-6.27,7.35-6.34,12.65-6.08c4.02,0.2,8.03,0.59,13.31,0.99C304.178,6.757,312.678,3.257,321.618,0.517z"/>
	<path d="M296.378,359.617c5.98,13.03,7.93,26.8,7.31,40.94c-0.84,19.29-15.08,37.59-33.8,43.53
		c-38.34,12.17-76.75,12.21-115.11,0.04c-19.2-6.09-33.44-24.68-34.02-44.52c-0.44-15.3,2.41-29.9,9.19-43.86
		c11.36-23.37,25.94-44.5,42.74-64.22c1.78-2.1,3.69-4.98,3.74-7.53c0.33-16.92,0.17-33.84,0.17-50.63
		c-0.5-0.55-0.87-1.37-1.44-1.54c-6.49-2.01-12.84-3.82-12.59-12.77c0.31-10.41,3.88-17.21,12.34-20.22
		c4.07-1.45,8.6-2.14,12.94-2.21c16.23-0.25,32.46-0.25,48.68,0c4.34,0.07,8.89,0.7,12.95,2.17c9.79,3.52,14.92,14.56,11.96,24.48
		c-1.27,4.29-2.57,5.19-13.55,9.16c0,17.57-0.21,34.5,0.2,51.41c0.07,2.84,2.39,5.99,4.41,8.37
		C269.968,312.847,285.068,334.987,296.378,359.617z M268.878,433.027c15.17-7.58,24.5-19.37,24.09-36.41
		c-0.25-10.46-2.19-21.43-5.97-31.17c-9.82-25.34-25.61-47.2-43.88-67.13c-4.92-5.37-7.02-10.56-6.61-17.73
		c0.88-15.08,1.05-30.19,1.49-45.29c0.27-9.4,0.55-9.81,9.93-12.98c6.33-2.13,8.58-7.67,3.83-12.51c-3.27-3.34-8.71-6.13-13.3-6.32
		c-17.29-0.73-34.65-0.57-51.96-0.11c-4.14,0.12-8.82,1.87-12.19,4.33c-5.64,4.12-4.98,13.24,0.81,14.03
		c8.54,1.17,11.93,5.82,12.02,14.48c3.48-2.83,5.82-4.73,8.94-7.26c-0.86,9.67-13.06,14.22-8.23,24.82
		c2.13-0.45,4.02-0.85,6.39-1.36c-5.95,10.07-5.95,10.07-5.41,15.89c2.1-0.93,4.14-1.84,6.67-2.96
		c-1.35,6.83-12.23,10.12-4.39,19.23c-2.85,4.18-5.38,8.22-8.23,12.01c-10.41,13.79-20.95,27.48-31.36,41.27
		c-1.31,1.74-3.5,4.56-2.93,5.69c4.19,8.29-2.84,12.1-6.67,16.61c-5.24,6.18-8.34,12.75-8.8,21.91c2.47-1.99,4.16-3.25,5.74-4.64
		c9.4-8.26,15.42-18.99,19.18-30.49c4.1-12.54,12.61-16.18,24.34-16.15c19.91,0.04,39.81-0.12,59.72,0.1
		c4.34,0.05,8.87,0.76,12.94,2.21c2.88,1.02,6.25,3.26,7.47,5.86c7.36,15.61,15.55,30.94,16.34,48.85
		c0.8,18.14-4.92,27.39-21.59,34.29c-19.12,7.91-38.95,10.45-59.98,8.4c-1.91,3.31-3.76,6.53-6.69,11.61
		c13.06,0,23.72,0.36,34.35-0.09C240.018,441.387,254.968,439.967,268.878,433.027z M259.318,414.277c8.69-4,13.24-11.1,13.19-21.16
		c-0.09-14.67-4.38-28.14-9.58-41.64c-4.1-10.64-11.1-14.48-22.02-14.24c-19.12,0.4-38.25,0.07-57.38,0.15
		c-3.29,0.02-6.8-0.04-9.83,1.03c-2.92,1.03-6.37,2.89-7.83,5.4c-6.64,11.38-11.15,23.6-12.73,36.98c2.09-0.16,3.47-0.26,5.51-0.41
		c-7.5,12.57-7.5,12.57-3.92,22.65c2.67-2.14,5.13-4.12,7.59-6.09c0.25,0.32,0.51,0.65,0.77,0.98c-1.79,3.47-3.57,6.94-5.12,9.94
		c4.11,7.61,8.72,5.68,14.05,0.35c-0.75,3.57-1.1,5.26-1.72,8.21c4.92,0.85,8.77,5.67,13.81,1.43c0.24-0.2,1.62,0.99,2.5,1.5
		c1.65,0.95,3.28,2.6,4.99,2.7c5.53,0.34,10.97-1.16,16.63,1.47c2.82,1.3,7.15-1.15,10.7-0.83
		C233.308,423.997,246.598,420.147,259.318,414.277z M186.018,440.937c2-3.72,3.69-6.87,5.89-10.95
		c-13.04-3.17-13.48-2.93-17.31,9.17C178.458,439.757,182.238,440.347,186.018,440.937z M174.308,428.187
		c0.31-0.55,0.18-1.35,0.32-2.73c-2.63-1.17-5.46-2.42-9.41-4.17c-2.85,4.47-5.07,7.96-7.82,12.3c4.49,1.9,7.66,3.23,10.99,4.64
		C170.688,434.357,172.548,431.307,174.308,428.187z M160.628,419.327c-2.72-1.96-4.77-3.43-6.82-4.9c-2.6,2.34-5.02,4.51-7.44,6.69
		c0.82-6.72,6.19-12.61-1.41-19.17c-2.5,2.28-4.97,4.53-7.43,6.78c2.02-10.63,12.67-18.24,7.49-30.43
		c-12.82,11.1-14.2,13.82-13.21,23.43c1.46,14.12,10.31,22.76,21.56,30.77C156.018,427.687,158.238,423.667,160.628,419.327z"/>
	<path style="fill:#B2D4D4;" d="M292.968,396.617c0.41,17.04-8.92,28.83-24.09,36.41c-13.91,6.94-28.86,8.36-43.94,8.99
		c-10.63,0.45-21.29,0.09-34.35,0.09c2.93-5.08,4.78-8.3,6.69-11.61c21.03,2.05,40.86-0.49,59.98-8.4
		c16.67-6.9,22.39-16.15,21.59-34.29c-0.79-17.91-8.98-33.24-16.34-48.85c-1.22-2.6-4.59-4.84-7.47-5.86
		c-4.07-1.45-8.6-2.16-12.94-2.21c-19.91-0.22-39.81-0.06-59.72-0.1c-11.73-0.03-20.24,3.61-24.34,16.15
		c-3.76,11.5-9.78,22.23-19.18,30.49c-1.58,1.39-3.27,2.65-5.74,4.64c0.46-9.16,3.56-15.73,8.8-21.91
		c3.83-4.51,10.86-8.32,6.67-16.61c-0.57-1.13,1.62-3.95,2.93-5.69c10.41-13.79,20.95-27.48,31.36-41.27
		c2.85-3.79,5.38-7.83,8.23-12.01c-7.84-9.11,3.04-12.4,4.39-19.23c-2.53,1.12-4.57,2.03-6.67,2.96c-0.54-5.82-0.54-5.82,5.41-15.89
		c-2.37,0.51-4.26,0.91-6.39,1.36c-4.83-10.6,7.37-15.15,8.23-24.82c-3.12,2.53-5.46,4.43-8.94,7.26
		c-0.09-8.66-3.48-13.31-12.02-14.48c-5.79-0.79-6.45-9.91-0.81-14.03c3.37-2.46,8.05-4.21,12.19-4.33
		c17.31-0.46,34.67-0.62,51.96,0.11c4.59,0.19,10.03,2.98,13.3,6.32c4.75,4.84,2.5,10.38-3.83,12.51
		c-9.38,3.17-9.66,3.58-9.93,12.98c-0.44,15.1-0.61,30.21-1.49,45.29c-0.41,7.17,1.69,12.36,6.61,17.73
		c18.27,19.93,34.06,41.79,43.88,67.13C290.778,375.187,292.718,386.157,292.968,396.617z M227.068,289.067
		c0.51-13.17,0.48-26.37,0.47-39.55c-0.01-2.14-0.67-4.36-1.43-6.39c-1.47-3.9-4.66-6.31-8.55-4.87c-0.65,0.24-1.22,0.72-1.74,1.36
		c-1.14,1.39-2.02,3.47-2.85,5.11c-0.59,1.18-0.13,2.88-0.19,4.35c-0.57,13.51-1.09,27.03-1.79,40.54
		c-0.21,4.18-0.14,8.07,3.77,10.71c3.81,3.37,6.62,0.38,8.64-2.3C225.288,295.497,226.948,292.127,227.068,289.067z"/>
	<path style="fill:#C1272D;" d="M288.888,72.107c4.16,4.42,4.25,9.78,0.97,14.21c-6.54,8.8-13.63,17.21-20.96,25.36
		c-1.71,1.9-5.69,3.49-7.95,2.84c-8.7-2.48-18.03-4.53-25.43-9.35c-10.43-6.8-13.11-25.25-7.18-36.25
		c3.49-6.48,13.09-7.93,20.28-2.34c4.28,3.33,7.62,7.86,11.16,11.63c4.95-2.96,9.76-6.3,14.97-8.81
		C279.818,66.957,284.868,67.817,288.888,72.107z"/>
	<path style="fill:#C1272D;" d="M272.508,393.117c0.05,10.06-4.5,17.16-13.19,21.16c-12.72,5.87-26.01,9.72-40.39,8.42
		c-3.55-0.32-7.88,2.13-10.7,0.83c-5.66-2.63-11.1-1.13-16.63-1.47c-1.71-0.1-3.34-1.75-4.99-2.7c-0.88-0.51-2.26-1.7-2.5-1.5
		c-5.04,4.24-8.89-0.58-13.81-1.43c0.62-2.95,0.97-4.64,1.72-8.21c-5.33,5.33-9.94,7.26-14.05-0.35c1.55-3,3.33-6.47,5.12-9.94
		c-0.26-0.33-0.52-0.66-0.77-0.98c-2.46,1.97-4.92,3.95-7.59,6.09c-3.58-10.08-3.58-10.08,3.92-22.65
		c-2.04,0.15-3.42,0.25-5.51,0.41c1.58-13.38,6.09-25.6,12.73-36.98c1.46-2.51,4.91-4.37,7.83-5.4c3.03-1.07,6.54-1.01,9.83-1.03
		c19.13-0.08,38.26,0.25,57.38-0.15c10.92-0.24,17.92,3.6,22.02,14.24C268.128,364.977,272.418,378.447,272.508,393.117z"/>
	<path style="fill:#FFFFFF;" d="M227.538,249.517c0.01,13.18,0.04,26.38-0.47,39.55c-0.12,3.06-1.78,6.43-3.67,8.96
		c-2.02,2.68-4.83,5.67-8.64,2.3c-0.01-0.12-0.02-0.24-0.05-0.36c8.08-2.52,8.89-3.67,9.28-11.76c0.42-8.67,1.23-17.34,1.26-26.02
		c0.01-5.42-0.8-10.92-1.9-16.24c-0.38-1.84-2.77-3.27-5.48-6.26l-2.05-0.07c0.52-0.64,1.09-1.12,1.74-1.36
		c3.89-1.44,7.08,0.97,8.55,4.87C226.868,245.157,227.528,247.377,227.538,249.517z"/>
	<path style="fill:#FFFFFF;" d="M223.348,245.947c1.1,5.32,1.91,10.82,1.9,16.24c-0.03,8.68-0.84,17.35-1.26,26.02
		c-0.39,8.09-1.2,9.24-9.28,11.76c-0.24-2.04-0.92-4.18-0.49-6.08c3.45-15.17,2.91-30.54,2.57-45.91c-0.04-2.04,0.51-4.1,1.08-8.29
		C220.578,242.677,222.968,244.107,223.348,245.947z"/>
	<path style="fill:#C1272D;" d="M221.228,125.827c0.1,14.22-3.7,27.64-10.96,39.89c-1.18,1.99-3.65,3.97-5.86,4.46
		c-17.47,3.87-34.28,2.18-49.9-7.15c-1.88-1.12-3.67-2.5-5.2-4.06c-7.09-7.25-7.07-15.44,0.64-22.07
		c10.19-8.76,21.53-12.61,35.26-5.02c3.27-10.57,9.83-15.91,18.93-18.43C214.098,110.687,221.148,115.407,221.228,125.827z"/>
	<path style="fill:#FFFFFF;" d="M215.818,239.617l2.05,0.07c-0.57,4.19-1.12,6.25-1.08,8.29c0.34,15.37,0.88,30.74-2.57,45.91
		c-0.43,1.9,0.25,4.04,0.49,6.08c-0.08,0.03-0.17,0.05-0.26,0.08c0.11,0.1,0.21,0.2,0.31,0.28c-3.91-2.64-3.98-6.53-3.77-10.71
		c0.7-13.51,1.22-27.03,1.79-40.54c0.06-1.47-0.4-3.17,0.19-4.35C213.798,243.087,214.678,241.007,215.818,239.617z"/>
	<path d="M214.758,300.327c-0.1-0.08-0.2-0.18-0.31-0.28c0.09-0.03,0.18-0.05,0.26-0.08
		C214.738,300.087,214.748,300.207,214.758,300.327z"/>
	<path style="fill:#B2D4D4;" d="M191.908,429.987c-2.2,4.08-3.89,7.23-5.89,10.95c-3.78-0.59-7.56-1.18-11.42-1.78
		C178.428,427.057,178.868,426.817,191.908,429.987z"/>
	<path style="fill:#B2D4D4;" d="M174.628,425.457c-0.14,1.38-0.01,2.18-0.32,2.73c-1.76,3.12-3.62,6.17-5.92,10.04
		c-3.33-1.41-6.5-2.74-10.99-4.64c2.75-4.34,4.97-7.83,7.82-12.3C169.168,423.037,171.998,424.287,174.628,425.457z"/>
	<path style="fill:#B2D4D4;" d="M153.808,414.427c2.05,1.47,4.1,2.94,6.82,4.9c-2.39,4.34-4.61,8.36-7.26,13.17
		c-11.25-8.01-20.1-16.65-21.56-30.77c-0.99-9.61,0.39-12.33,13.21-23.43c5.18,12.19-5.47,19.8-7.49,30.43
		c2.46-2.25,4.93-4.5,7.43-6.78c7.6,6.56,2.23,12.45,1.41,19.17C148.788,418.937,151.208,416.767,153.808,414.427z"/>
</g>
</svg>