<?xml version="1.0" standalone="no"?><!DOCTYPE svg PUBLIC "-//W3C//DTD SVG 1.1//EN" "http://www.w3.org/Graphics/SVG/1.1/DTD/svg11.dtd"><svg t="1716805214544" class="icon" viewBox="0 0 1024 1024" version="1.1" xmlns="http://www.w3.org/2000/svg" p-id="4428" xmlns:xlink="http://www.w3.org/1999/xlink" width="200" height="200"><path d="M567.403521 308.479572h-42.300936v-31.725702a124.576255 124.576255 0 0 1 124.682008-124.258998v42.300936A82.275319 82.275319 0 0 0 567.403521 276.965375zM500.039281 435.805387h-42.300935V117.913857A75.612922 75.612922 0 0 0 382.125424 42.300935V0a118.01961 118.01961 0 0 1 117.913857 117.913857z" fill="#282D33" p-id="4429"></path><path d="M512.729562 515.648403a55.096968 55.096968 0 0 1-54.991216-54.991216v-89.572231h42.300935v89.572231a12.690281 12.690281 0 0 0 25.380561 0V303.191955h42.300936v157.465232a55.096968 55.096968 0 0 1-54.991216 54.991216zM308.521796 221.12814h-42.300935v-103.214283A118.125362 118.125362 0 0 1 384.24047 0v42.300935a75.718674 75.718674 0 0 0-75.718674 75.612922zM772.034296 385.150017h-42.300935V276.965375a82.275319 82.275319 0 0 0-82.169568-82.169567v-42.300936a124.576255 124.576255 0 0 1 124.470503 124.470503z" fill="#282D33" p-id="4430"></path><path d="M282.506721 928.294028a180.624994 180.624994 0 0 1-179.778976-164.550639h359.557951a180.730747 180.730747 0 0 1-179.778975 164.550639z" fill="#F8C44F" p-id="4431"></path><path d="M918.71279 1023.471133H585.275666a45.68501 45.68501 0 0 1-40.185889-21.150468 52.876169 52.876169 0 0 1 0-52.135903l126.902807-257.506944V541.451973h-11.315501V410.213321H843.417124V541.451973H831.784367v151.860359L958.687173 950.713524a52.876169 52.876169 0 0 1 0 52.135903 45.790763 45.790763 0 0 1-39.974383 20.621706zM702.978019 499.151038h11.844262v203.996261L583.477876 969.431688a16.814622 16.814622 0 0 0-2.538056 10.575233 13.430547 13.430547 0 0 0 4.335846 0.634514h333.437124a8.14293 8.14293 0 0 0 4.441598-0.846018 17.237631 17.237631 0 0 0-2.538056-10.575234L789.483432 703.147299V499.151038h11.632757v-46.636781h-98.13817z" fill="#282D33" p-id="4432"></path><path d="M645.766004 938.869262l106.2811-215.629019 106.2811 215.629019h-212.5622z" fill="#34CA9D" p-id="4433"></path><path d="M282.506721 1023.471133a275.590594 275.590594 0 0 1-77.939474-539.971441V391.283653h-16.603117V258.881725H377.049311V391.283653h-16.497364v92.744801a275.590594 275.590594 0 0 1-78.045226 539.97144zM230.265066 348.982717h16.603117v167.723209l-16.497365 3.701332a233.289659 233.289659 0 1 0 104.271806 0l-16.391613-3.701332V348.982717H334.748376v-47.800057h-104.48331zM95.219329 202.727233a67.046983 67.046983 0 1 1 66.94123-67.046983 67.152735 67.152735 0 0 1-66.94123 67.046983z m0-91.687278a24.746047 24.746047 0 1 0 24.640295 24.640295 24.746047 24.746047 0 0 0-24.640295-24.640295zM888.361868 46.10802h42.300936v40.291641h-42.300936zM800.49225 119.077133l21.150468-36.63261 34.898272 20.156396-21.150468 36.622035zM798.747337 195.113065l34.898271-20.12467 21.139893 36.643185-34.908847 20.135245zM884.766289 230.963107h42.300935v40.291641h-42.300935zM958.877528 214.603221l21.150467-36.63261 34.898272 20.156395-21.150468 36.63261zM960.675317 105.741763l34.898272-20.14582 21.150468 36.63261-34.898272 20.14582z" fill="#282D33" p-id="4434"></path></svg>