<?xml version="1.0" standalone="no"?><!DOCTYPE svg PUBLIC "-//W3C//DTD SVG 1.1//EN" "http://www.w3.org/Graphics/SVG/1.1/DTD/svg11.dtd"><svg t="1716805243823" class="icon" viewBox="0 0 1024 1024" version="1.1" xmlns="http://www.w3.org/2000/svg" p-id="4775" xmlns:xlink="http://www.w3.org/1999/xlink" width="200" height="200"><path d="M170.93 148.35l719.61 0 0 771.35-719.61 0 0-771.35Z" fill="#FED547" p-id="4776"></path><path d="M817.72 148.35h-62.5A73 73 0 0 1 828 221.17v625.71a73 73 0 0 1-72.82 72.82h62.5a73 73 0 0 0 72.82-72.82V221.17a73 73 0 0 0-72.78-72.82z" fill="#E2B742" p-id="4777"></path><path d="M498.65 730.33c20.41-19.15 33.63-36.37 33.63-53.24 0-14.83-9.12-24.41-23.94-24.41-10.37 0-17.56 4.91-24.29 12.21l5.48 5.25c4.79-5.59 10.82-9.92 17.79-9.92 10.71 0 15.85 7.41 15.85 17.22 0 14.47-11.86 31.35-38.54 54.61v5.59h51.64v-8h-23.94c-4.21 0-9.24 0.23-13.68 0.69zM433.32 565.43h-109.2v-95.89h-25.68v226.44h25.68V587.72h109.2v108.26h25.37V469.54h-25.37v95.89zM631.24 465.51c-42.69 0-69.6 37.76-69.6 116.31 0 79.18 26.91 118.18 69.6 118.18 42.38 0 69-39 69-118.18-0.02-78.25-26.62-116.31-69-116.31z m0 214.07c-26.91 0-45.16-30.3-45.16-97.75 0-66.19 18.25-95.89 45.16-95.89 26.6 0 44.54 29.7 44.54 95.89 0.01 67.45-17.94 97.75-44.54 97.75zM764.08 329.39h-529.5a6.07 6.07 0 1 0 0 12.14h529.5a6.07 6.07 0 1 0 0-12.14z" fill="#28CA67" p-id="4778"></path><path d="M786.32 142.28H653.91v-38a6.07 6.07 0 1 0-12.14 0v38H364v-38a6.07 6.07 0 1 0-12.14 0v38H212.35a79 79 0 0 0-78.89 78.89v625.71a79 79 0 0 0 78.89 78.89h574a79 79 0 0 0 78.89-78.89V221.17a79 79 0 0 0-78.92-78.89z m66.75 704.6a66.83 66.83 0 0 1-66.75 66.75h-574a66.83 66.83 0 0 1-66.75-66.75V221.17a66.83 66.83 0 0 1 66.75-66.75h139.55v45.45a6.07 6.07 0 1 0 12.14 0v-45.45h277.76v45.45a6.07 6.07 0 0 0 12.14 0v-45.45h132.41a66.83 66.83 0 0 1 66.75 66.75z" fill="#28CA67" p-id="4779"></path></svg>